<svg width="19" height="19" viewBox="0 0 19 19" fill="none" xmlns="http://www.w3.org/2000/svg">
<path d="M9.625 0.25C4.46875 0.25 0.25 4.46875 0.25 9.625C0.25 14.7813 4.46875 19 9.625 19C14.7813 19 19 14.7813 19 9.625C19 4.46875 14.7813 0.25 9.625 0.25ZM9.625 2.59375C13.5156 2.59375 16.6562 5.73438 16.6562 9.625C16.6562 13.5156 13.5156 16.6562 9.625 16.6562C5.73438 16.6562 2.59375 13.5156 2.59375 9.625C2.59375 5.73438 5.73438 2.59375 9.625 2.59375ZM9.07812 4.98438C8.73295 4.98438 8.45312 5.2642 8.45312 5.60938V10.1406L8.82812 10.4453L10 11.6172L10.3563 12.0154C10.5956 12.2828 11.0103 12.2943 11.2641 12.0406L12.0172 11.2875C12.2709 11.0338 12.2594 10.619 11.992 10.3798L11.5938 10.0234L10.7969 9.22656V5.60938C10.7969 5.2642 10.5171 4.98438 10.1719 4.98438H9.07812Z" fill="#B6BBC7"/>
</svg>
