<svg width="94" height="58" viewBox="0 0 94 58" fill="none" xmlns="http://www.w3.org/2000/svg">
<g filter="url(#filter0_d_79_202)">
<mask id="path-1-outside-1_79_202" maskUnits="userSpaceOnUse" x="0" y="-0.5" width="94" height="54" fill="black">
<rect fill="white" y="-0.5" width="94" height="54"/>
<path d="M24.1243 19.681C26.4703 20.157 28.3743 21.041 29.8363 22.333C31.2983 23.591 32.0293 25.478 32.0293 27.994C32.0293 31.904 30.6013 34.641 27.7453 36.205C24.9233 37.735 20.9113 38.5 15.7093 38.5H3.26527V3.004H14.3323C19.6023 3.004 23.6143 3.718 26.3683 5.146C29.1563 6.54 30.5503 8.886 30.5503 12.184C30.5503 14.292 29.9383 15.958 28.7143 17.182C27.4903 18.372 25.9603 19.205 24.1243 19.681ZM13.7713 10.195V16.723H15.5563C17.1543 16.723 18.2763 16.468 18.9223 15.958C19.5683 15.414 19.8913 14.513 19.8913 13.255C19.8913 12.201 19.5343 11.436 18.8203 10.96C18.1403 10.45 16.9673 10.195 15.3013 10.195H13.7713ZM15.8113 31.105C17.5793 31.105 18.9223 30.833 19.8403 30.289C20.7583 29.745 21.2173 28.742 21.2173 27.28C21.2173 25.92 20.7923 24.934 19.9423 24.322C19.1263 23.676 17.8853 23.353 16.2193 23.353H13.7713V31.105H15.8113ZM59.5219 38.5H50.6989L50.3419 35.542C48.4719 38.194 45.7859 39.52 42.2839 39.52C39.7339 39.52 37.8299 38.755 36.5719 37.225C35.3139 35.695 34.6849 33.57 34.6849 30.85V11.266H44.7829V29.524C44.7829 30.51 44.9189 31.207 45.1909 31.615C45.4969 31.989 45.9219 32.176 46.4659 32.176C46.9419 32.176 47.4349 31.989 47.9449 31.615C48.4889 31.241 48.9819 30.68 49.4239 29.932V11.266H59.5219V38.5ZM81.3196 38.449C80.1636 42.223 78.1916 45.079 75.4036 47.017C72.6156 48.955 68.9436 49.992 64.3876 50.128L63.3166 43.243C65.9346 42.971 67.8726 42.495 69.1306 41.815C70.4226 41.135 71.4256 40.03 72.1396 38.5H68.6716L60.9196 11.266H71.6296L75.0466 32.329L79.2796 11.266H89.6836L81.3196 38.449Z"/>
</mask>
<path d="M24.1243 19.681C26.4703 20.157 28.3743 21.041 29.8363 22.333C31.2983 23.591 32.0293 25.478 32.0293 27.994C32.0293 31.904 30.6013 34.641 27.7453 36.205C24.9233 37.735 20.9113 38.5 15.7093 38.5H3.26527V3.004H14.3323C19.6023 3.004 23.6143 3.718 26.3683 5.146C29.1563 6.54 30.5503 8.886 30.5503 12.184C30.5503 14.292 29.9383 15.958 28.7143 17.182C27.4903 18.372 25.9603 19.205 24.1243 19.681ZM13.7713 10.195V16.723H15.5563C17.1543 16.723 18.2763 16.468 18.9223 15.958C19.5683 15.414 19.8913 14.513 19.8913 13.255C19.8913 12.201 19.5343 11.436 18.8203 10.96C18.1403 10.45 16.9673 10.195 15.3013 10.195H13.7713ZM15.8113 31.105C17.5793 31.105 18.9223 30.833 19.8403 30.289C20.7583 29.745 21.2173 28.742 21.2173 27.28C21.2173 25.92 20.7923 24.934 19.9423 24.322C19.1263 23.676 17.8853 23.353 16.2193 23.353H13.7713V31.105H15.8113ZM59.5219 38.5H50.6989L50.3419 35.542C48.4719 38.194 45.7859 39.52 42.2839 39.52C39.7339 39.52 37.8299 38.755 36.5719 37.225C35.3139 35.695 34.6849 33.57 34.6849 30.85V11.266H44.7829V29.524C44.7829 30.51 44.9189 31.207 45.1909 31.615C45.4969 31.989 45.9219 32.176 46.4659 32.176C46.9419 32.176 47.4349 31.989 47.9449 31.615C48.4889 31.241 48.9819 30.68 49.4239 29.932V11.266H59.5219V38.5ZM81.3196 38.449C80.1636 42.223 78.1916 45.079 75.4036 47.017C72.6156 48.955 68.9436 49.992 64.3876 50.128L63.3166 43.243C65.9346 42.971 67.8726 42.495 69.1306 41.815C70.4226 41.135 71.4256 40.03 72.1396 38.5H68.6716L60.9196 11.266H71.6296L75.0466 32.329L79.2796 11.266H89.6836L81.3196 38.449Z" fill="#FFFFF7"/>
<path d="M24.1243 19.681L23.3714 16.777L23.5277 22.6211L24.1243 19.681ZM29.8363 22.333L27.8497 24.581L27.8645 24.5941L27.8795 24.607L29.8363 22.333ZM27.7453 36.205L29.1752 38.8423L29.1862 38.8363L27.7453 36.205ZM3.26527 38.5H0.265266V41.5H3.26527V38.5ZM3.26527 3.004V0.00399798H0.265266V3.004H3.26527ZM26.3683 5.146L24.9873 7.80926L25.0069 7.81941L25.0266 7.82928L26.3683 5.146ZM28.7143 17.182L30.8055 19.333L30.8207 19.3183L30.8356 19.3033L28.7143 17.182ZM13.7713 10.195V7.195H10.7713V10.195H13.7713ZM13.7713 16.723H10.7713V19.723H13.7713V16.723ZM18.9223 15.958L20.7812 18.3126L20.8184 18.2833L20.8547 18.2527L18.9223 15.958ZM18.8203 10.96L17.0203 13.36L17.0869 13.41L17.1562 13.4561L18.8203 10.96ZM19.8403 30.289L21.3697 32.8699L21.3697 32.8699L19.8403 30.289ZM19.9423 24.322L18.0802 26.6741L18.1338 26.7166L18.1894 26.7566L19.9423 24.322ZM13.7713 23.353V20.353H10.7713V23.353H13.7713ZM13.7713 31.105H10.7713V34.105H13.7713V31.105ZM23.5277 22.6211C25.4741 23.016 26.8626 23.7087 27.8497 24.581L31.8229 20.085C29.8859 18.3733 27.4665 17.298 24.7208 16.7409L23.5277 22.6211ZM27.8795 24.607C28.4907 25.1329 29.0293 26.0679 29.0293 27.994H35.0293C35.0293 24.8881 34.1058 22.0491 31.793 20.059L27.8795 24.607ZM29.0293 27.994C29.0293 31.0704 27.9889 32.6512 26.3043 33.5737L29.1862 38.8363C33.2136 36.6308 35.0293 32.7376 35.0293 27.994H29.0293ZM26.3154 33.5677C24.1242 34.7557 20.6886 35.5 15.7093 35.5V41.5C21.134 41.5 25.7224 40.7143 29.1751 38.8423L26.3154 33.5677ZM15.7093 35.5H3.26527V41.5H15.7093V35.5ZM6.26527 38.5V3.004H0.265266V38.5H6.26527ZM3.26527 6.004H14.3323V0.00399798H3.26527V6.004ZM14.3323 6.004C19.4146 6.004 22.8605 6.70649 24.9873 7.80926L27.7492 2.48273C24.368 0.729508 19.7899 0.00399798 14.3323 0.00399798V6.004ZM25.0266 7.82928C25.9815 8.3067 26.5625 8.87224 26.9257 9.48348C27.2948 10.1047 27.5503 10.9617 27.5503 12.184H33.5503C33.5503 10.1083 33.1087 8.14331 32.0838 6.41852C31.053 4.68376 29.5431 3.37929 27.7099 2.46272L25.0266 7.82928ZM27.5503 12.184C27.5503 13.681 27.136 14.5176 26.5929 15.0607L30.8356 19.3033C32.7405 17.3984 33.5503 14.903 33.5503 12.184H27.5503ZM26.623 15.031C25.8125 15.819 24.7607 16.4168 23.3714 16.777L24.8772 22.585C27.1598 21.9932 29.168 20.925 30.8055 19.333L26.623 15.031ZM10.7713 10.195V16.723H16.7713V10.195H10.7713ZM13.7713 19.723H15.5563V13.723H13.7713V19.723ZM15.5563 19.723C17.2866 19.723 19.2973 19.4842 20.7812 18.3126L17.0633 13.6034C17.2016 13.4942 17.2193 13.5409 16.9314 13.6064C16.6544 13.6693 16.211 13.723 15.5563 13.723V19.723ZM20.8547 18.2527C22.4548 16.9052 22.8913 14.9566 22.8913 13.255H16.8913C16.8913 13.6413 16.8399 13.8203 16.825 13.8619C16.8193 13.8778 16.8253 13.8559 16.8546 13.8122C16.885 13.7668 16.9303 13.7134 16.9899 13.6633L20.8547 18.2527ZM22.8913 13.255C22.8913 11.459 22.229 9.62696 20.4844 8.46385L17.1562 13.4561C17.1196 13.4318 17.0691 13.3909 17.0177 13.3312C16.966 13.2713 16.9288 13.2105 16.905 13.1594C16.858 13.0587 16.8913 13.0604 16.8913 13.255H22.8913ZM20.6203 8.56C19.1171 7.43259 17.0899 7.195 15.3013 7.195V13.195C15.9959 13.195 16.4791 13.2495 16.7932 13.3178C17.1202 13.3889 17.1367 13.4473 17.0203 13.36L20.6203 8.56ZM15.3013 7.195H13.7713V13.195H15.3013V7.195ZM15.8113 34.105C17.8025 34.105 19.7773 33.8135 21.3697 32.8699L18.3109 27.7081C18.0673 27.8525 17.3561 28.105 15.8113 28.105V34.105ZM21.3697 32.8699C23.5229 31.5939 24.2173 29.3618 24.2173 27.28H18.2173C18.2173 27.4908 18.2005 27.6411 18.1819 27.7413C18.1635 27.8403 18.145 27.8807 18.1451 27.8804C18.1465 27.8772 18.1628 27.8442 18.2018 27.8003C18.2415 27.7558 18.2826 27.7249 18.3109 27.7081L21.3697 32.8699ZM24.2173 27.28C24.2173 25.2728 23.5546 23.2261 21.6952 21.8874L18.1894 26.7566C18.1852 26.7536 18.1706 26.7417 18.155 26.7222C18.1398 26.703 18.1376 26.6942 18.1435 26.708C18.1575 26.7403 18.2173 26.9034 18.2173 27.28H24.2173ZM21.8044 21.9699C20.2231 20.718 18.1828 20.353 16.2193 20.353V26.353C17.5877 26.353 18.0295 26.634 18.0802 26.6741L21.8044 21.9699ZM16.2193 20.353H13.7713V26.353H16.2193V20.353ZM10.7713 23.353V31.105H16.7713V23.353H10.7713ZM13.7713 34.105H15.8113V28.105H13.7713V34.105ZM59.5219 38.5V41.5H62.5219V38.5H59.5219ZM50.6989 38.5L47.7205 38.8595L48.0392 41.5H50.6989V38.5ZM50.3419 35.542L53.3202 35.1825L52.3855 27.4378L47.8901 33.8132L50.3419 35.542ZM36.5719 37.225L34.2546 39.1303L34.2546 39.1303L36.5719 37.225ZM34.6849 11.266V8.266H31.6849V11.266H34.6849ZM44.7829 11.266H47.7829V8.266H44.7829V11.266ZM45.1909 31.615L42.6947 33.2791L42.7761 33.4012L42.869 33.5147L45.1909 31.615ZM47.9449 31.615L46.2453 29.1429L46.2076 29.1688L46.1708 29.1958L47.9449 31.615ZM49.4239 29.932L52.0066 31.4582L52.4239 30.7521V29.932H49.4239ZM49.4239 11.266V8.266H46.4239V11.266H49.4239ZM59.5219 11.266H62.5219V8.266H59.5219V11.266ZM59.5219 35.5H50.6989V41.5H59.5219V35.5ZM53.6772 38.1405L53.3202 35.1825L47.3635 35.9015L47.7205 38.8595L53.6772 38.1405ZM47.8901 33.8132C46.6324 35.5968 44.9012 36.52 42.2839 36.52V42.52C46.6705 42.52 50.3113 40.7912 52.7936 37.2708L47.8901 33.8132ZM42.2839 36.52C40.3526 36.52 39.4213 35.9669 38.8891 35.3197L34.2546 39.1303C36.2384 41.5431 39.1151 42.52 42.2839 42.52V36.52ZM38.8891 35.3197C38.2124 34.4967 37.6849 33.1328 37.6849 30.85H31.6849C31.6849 34.0072 32.4153 36.8933 34.2546 39.1303L38.8891 35.3197ZM37.6849 30.85V11.266H31.6849V30.85H37.6849ZM34.6849 14.266H44.7829V8.266H34.6849V14.266ZM41.7829 11.266V29.524H47.7829V11.266H41.7829ZM41.7829 29.524C41.7829 30.6089 41.899 32.0855 42.6947 33.2791L47.687 29.9509C47.772 30.0785 47.8121 30.1762 47.8266 30.2157C47.8414 30.2557 47.8385 30.2589 47.8293 30.2117C47.8094 30.1094 47.7829 29.8924 47.7829 29.524H41.7829ZM42.869 33.5147C43.821 34.6783 45.1498 35.176 46.4659 35.176V29.176C46.5393 29.176 46.7193 29.1895 46.9473 29.2898C47.1854 29.3945 47.379 29.5518 47.5127 29.7153L42.869 33.5147ZM46.4659 35.176C47.7605 35.176 48.8621 34.6626 49.7189 34.0342L46.1708 29.1958C46.092 29.2535 46.0777 29.2501 46.1286 29.2308C46.1855 29.2092 46.3032 29.176 46.4659 29.176V35.176ZM49.6444 34.0871C50.6429 33.4007 51.4096 32.4685 52.0066 31.4582L46.8411 28.4058C46.5541 28.8915 46.3348 29.0813 46.2453 29.1429L49.6444 34.0871ZM52.4239 29.932V11.266H46.4239V29.932H52.4239ZM49.4239 14.266H59.5219V8.266H49.4239V14.266ZM56.5219 11.266V38.5H62.5219V11.266H56.5219ZM81.3196 38.449L78.4522 37.5667L78.4511 37.5704L81.3196 38.449ZM75.4036 47.017L77.1159 49.4803L77.1159 49.4803L75.4036 47.017ZM64.3876 50.128L61.4232 50.5891L61.8302 53.2057L64.4771 53.1267L64.3876 50.128ZM63.3166 43.243L63.0066 40.2591L59.8671 40.5852L60.3522 43.7041L63.3166 43.243ZM69.1306 41.815L67.7333 39.1602L67.7186 39.168L67.704 39.1759L69.1306 41.815ZM72.1396 38.5L74.8581 39.7687L76.8502 35.5H72.1396V38.5ZM68.6716 38.5L65.7862 39.3213L66.4063 41.5H68.6716V38.5ZM60.9196 11.266V8.266H56.9465L58.0342 12.0873L60.9196 11.266ZM71.6296 11.266L74.5909 10.7856L74.1821 8.266H71.6296V11.266ZM75.0466 32.329L72.0853 32.8094L77.9878 32.9201L75.0466 32.329ZM79.2796 11.266V8.266H76.8225L76.3384 10.6749L79.2796 11.266ZM89.6836 11.266L92.5509 12.1483L93.7454 8.266H89.6836V11.266ZM78.4511 37.5704C77.4586 40.8106 75.8403 43.0598 73.6913 44.5537L77.1159 49.4803C80.5429 47.0982 82.8685 43.6354 84.188 39.3276L78.4511 37.5704ZM73.6913 44.5537C71.5187 46.0639 68.4669 47.0049 64.2981 47.1293L64.4771 53.1267C69.4203 52.9791 73.7125 51.8461 77.1159 49.4803L73.6913 44.5537ZM67.3519 49.6669L66.2809 42.7819L60.3522 43.7041L61.4232 50.5891L67.3519 49.6669ZM63.6266 46.2269C66.3627 45.9427 68.7738 45.4181 70.5571 44.4541L67.704 39.1759C66.9713 39.5719 65.5065 39.9993 63.0066 40.2591L63.6266 46.2269ZM70.5278 44.4698C72.4878 43.4382 73.9121 41.7958 74.8581 39.7687L69.421 37.2313C68.939 38.2642 68.3574 38.8318 67.7333 39.1602L70.5278 44.4698ZM72.1396 35.5H68.6716V41.5H72.1396V35.5ZM71.557 37.6787L63.805 10.4447L58.0342 12.0873L65.7862 39.3213L71.557 37.6787ZM60.9196 14.266H71.6296V8.266H60.9196V14.266ZM68.6683 11.7464L72.0853 32.8094L78.0079 31.8486L74.5909 10.7856L68.6683 11.7464ZM77.9878 32.9201L82.2208 11.8571L76.3384 10.6749L72.1054 31.7379L77.9878 32.9201ZM79.2796 14.266H89.6836V8.266H79.2796V14.266ZM86.8162 10.3837L78.4522 37.5667L84.1869 39.3313L92.5509 12.1483L86.8162 10.3837Z" fill="#017416" mask="url(#path-1-outside-1_79_202)"/>
</g>
<defs>
<filter id="filter0_d_79_202" x="0.265381" y="0.00402832" width="93.48" height="57.1666" filterUnits="userSpaceOnUse" color-interpolation-filters="sRGB">
<feFlood flood-opacity="0" result="BackgroundImageFix"/>
<feColorMatrix in="SourceAlpha" type="matrix" values="0 0 0 0 0 0 0 0 0 0 0 0 0 0 0 0 0 0 127 0" result="hardAlpha"/>
<feOffset dy="3.96504"/>
<feComposite in2="hardAlpha" operator="out"/>
<feColorMatrix type="matrix" values="0 0 0 0 0.00392157 0 0 0 0 0.454902 0 0 0 0 0.0862745 0 0 0 1 0"/>
<feBlend mode="normal" in2="BackgroundImageFix" result="effect1_dropShadow_79_202"/>
<feBlend mode="normal" in="SourceGraphic" in2="effect1_dropShadow_79_202" result="shape"/>
</filter>
</defs>
</svg>
